<?xml version="1.0" encoding="UTF-8" standalone="no"?>
<!-- Created with Inkscape (http://www.inkscape.org/) -->

<svg
   xmlns:dc="http://purl.org/dc/elements/1.1/"
   xmlns:cc="http://creativecommons.org/ns#"
   xmlns:rdf="http://www.w3.org/1999/02/22-rdf-syntax-ns#"
   xmlns:svg="http://www.w3.org/2000/svg"
   xmlns="http://www.w3.org/2000/svg"
   xmlns:sodipodi="http://sodipodi.sourceforge.net/DTD/sodipodi-0.dtd"
   xmlns:inkscape="http://www.inkscape.org/namespaces/inkscape"
   width="144"
   height="144"
   id="svg2"
   version="1.1"
   inkscape:version="0.48.2 r9819"
   sodipodi:docname="history_icon.svg">
  <defs
     id="defs4" />
  <sodipodi:namedview
     id="base"
     pagecolor="#ffffff"
     bordercolor="#666666"
     borderopacity="1.0"
     inkscape:pageopacity="0.0"
     inkscape:pageshadow="2"
     inkscape:zoom="0.5"
     inkscape:cx="103.86029"
     inkscape:cy="97.134013"
     inkscape:document-units="px"
     inkscape:current-layer="layer1"
     showgrid="false"
     inkscape:window-width="1133"
     inkscape:window-height="684"
     inkscape:window-x="26"
     inkscape:window-y="22"
     inkscape:window-maximized="0" />
  <metadata
     id="metadata7">
    <rdf:RDF>
      <cc:Work
         rdf:about="">
        <dc:format>image/svg+xml</dc:format>
        <dc:type
           rdf:resource="http://purl.org/dc/dcmitype/StillImage" />
        <dc:title></dc:title>
      </cc:Work>
    </rdf:RDF>
  </metadata>
  <g
     inkscape:label="Layer 1"
     inkscape:groupmode="layer"
     id="layer1"
     transform="translate(0,-908.36218)">
    <g
       id="g4899"
       transform="matrix(0.73494598,0.55676596,-0.6038499,0.79709805,606.22019,161.92013)">
      <path
         transform="translate(0,908.36218)"
         id="path4897"
         d="M 26.375371,42.958434 C 36.151752,27.210776 53.703896,16.71063 73.73098,16.71063 c 26.40075,0 48.50057,18.24703 54.15611,42.70814"
         style="fill:none;stroke:#000000;stroke-width:8;stroke-linecap:round;stroke-linejoin:round;stroke-miterlimit:4;stroke-opacity:1;stroke-dasharray:none"
         inkscape:connector-curvature="0" />
      <path
         inkscape:connector-curvature="0"
         id="rect4346"
         d="m 111.75,959.36218 c 0.35414,1.47763 1.00992,3.04198 2.00424,4.40625 l 7.08315,9.71877 c 1.59208,2.1845 3.53485,3.3369 5.05615,3.1875 0.6915,-0.068 1.3011,-0.4102 1.75371,-1.0313 l 10.22616,-14.03122 c 0.42596,-0.58446 0.6837,-1.36872 0.75159,-2.25 l -26.875,0 z"
         style="fill:#000000;fill-opacity:1;stroke:none" />
    </g>
    <g
       id="g4903"
       transform="matrix(-0.73494598,-0.55676596,0.6038499,-0.79709805,-459.21982,1795.8403)">
      <path
         style="fill:none;stroke:#000000;stroke-width:8;stroke-linecap:round;stroke-linejoin:round;stroke-miterlimit:4;stroke-opacity:1;stroke-dasharray:none"
         d="M 26.375371,42.958434 C 36.151752,27.210776 53.703896,16.71063 73.73098,16.71063 c 26.40075,0 48.50057,18.24703 54.15611,42.70814"
         id="path4905"
         transform="translate(0,908.36218)"
         inkscape:connector-curvature="0" />
      <path
         style="fill:#000000;fill-opacity:1;stroke:none"
         d="m 111.75,959.36218 c 0.35414,1.47763 1.00992,3.04198 2.00424,4.40625 l 7.08315,9.71877 c 1.59208,2.1845 3.53485,3.3369 5.05615,3.1875 0.6915,-0.068 1.3011,-0.4102 1.75371,-1.0313 l 10.22616,-14.03122 c 0.42596,-0.58446 0.6837,-1.36872 0.75159,-2.25 l -26.875,0 z"
         id="path4907"
         inkscape:connector-curvature="0" />
    </g>
  </g>
</svg>
